<svg xmlns="http://www.w3.org/2000/svg" width="256" height="256" viewBox="0 0 100 100">
<rect width="100" height="100" rx="20" fill="#830099"/><path d="M19.78 66.25L19.78 66.25Q15.87 66.25 12.79 64.98Q9.70 63.73 8.26 61.43L8.26 61.43L12.45 57.20Q13.84 59 15.96 59.88Q18.07 60.75 20.19 60.75L20.19 60.75Q22.75 60.75 24.08 59.52Q25.41 58.28 25.41 56.12L25.41 56.12Q25.41 54.55 24.53 53.80Q23.65 53.06 21.76 52.61L21.76 52.61L18.66 51.89Q15.24 51.13 13.69 49.03Q12.13 46.94 12.13 44.02L12.13 44.02Q12.13 41.67 12.97 39.78Q13.80 37.89 15.37 36.55Q16.95 35.20 19.20 34.47Q21.45 33.75 24.24 33.75L24.24 33.75Q27.61 33.75 30.36 34.92Q33.10 36.09 34.45 38.16L34.45 38.16L30.09 42.17Q29.05 40.73 27.50 39.94Q25.95 39.16 23.92 39.16L23.92 39.16Q21.45 39.16 20.23 40.28Q19.02 41.41 19.02 43.30L19.02 43.30Q19.02 44.64 19.85 45.36Q20.68 46.08 22.80 46.63L22.80 46.63L25.77 47.39Q32.34 49.05 32.34 55.35L32.34 55.35Q32.34 57.78 31.51 59.79Q30.67 61.79 29.05 63.23Q27.43 64.67 25.09 65.46Q22.75 66.25 19.78 66.25ZM35.85 65.70L41.11 34.30L50.34 34.30Q55.65 34.30 58.42 37.27Q61.18 40.23 61.18 45.86L61.18 45.86Q61.18 50.49 60.19 54.19Q59.20 57.88 57.29 60.44Q55.38 63.00 52.54 64.36Q49.71 65.70 46.06 65.70L46.06 65.70L35.85 65.70ZM43.36 60.44L46.20 60.44Q49.21 60.44 50.92 58.71Q52.63 56.97 53.26 53.33L53.26 53.33L54.21 47.66Q54.34 46.85 54.41 46.04Q54.48 45.23 54.48 44.60L54.48 44.60Q54.48 39.56 49.75 39.56L49.75 39.56L46.83 39.56L43.36 60.44ZM79.63 65.70L74.73 53.02L71.04 57.11L69.60 65.70L62.94 65.70L68.16 34.30L74.82 34.30L72.57 47.75L72.93 47.75L77.97 41.59L83.91 34.30L91.74 34.30L80.04 48.24L87.01 65.70L79.63 65.70Z" fill="#ffffff"/>
</svg>